<svg width="19" height="21" viewBox="0 0 19 21" fill="none" xmlns="http://www.w3.org/2000/svg">
<path d="M19 9.62339L-4.77016e-07 9.62339L5.9375 16.2821L5.9375 20.5363L13.0625 20.5363L13.0625 16.2821L19 9.62339Z" fill="#9F51E0"/>
<path d="M18.5065 8.14282C17.9415 4.74445 15.1795 -3.4985e-05 9.37662 -3.47314e-05C3.57402 -3.44777e-05 0.811759 4.74445 0.24675 8.14282L3.08022 8.14282C3.63102 5.41287 5.7987 2.61106 9.37662 2.61106C13.0779 2.61106 15.1222 5.41286 15.673 8.14282L18.5065 8.14282Z" fill="#9F51E0"/>
<path d="M11.7909 8.14282L13.3247 8.14282C12.7456 6.27749 11.2048 4.93503 9.37663 4.93503C7.54841 4.93503 6.0076 6.27749 5.42857 8.14282L6.96237 8.14282C7.6123 8.14282 8.21732 8.14282 9.2506 8.14282C10.2839 8.14282 10.5108 8.14282 11.7909 8.14282Z" fill="#9F51E0"/>
</svg>
